<svg width="16" height="16" viewBox="0 0 16 16" fill="none" xmlns="http://www.w3.org/2000/svg">
<path fill-rule="evenodd" clip-rule="evenodd" d="M6.26664 1.42306C6.20509 0.842093 5.9813 0.76461 5.77802 0.695984C5.61254 0.638573 5.42117 0.581795 5.2298 0.525018C5.04079 0.468941 4.70625 0.452844 4.35179 0.685854C3.99571 0.915615 3.03163 1.44453 2.57962 2.96804C2.12837 4.489 2.72158 6.26717 2.80211 6.51559C2.88576 6.76216 3.77168 10.5343 6.31903 12.64C8.4377 14.3884 8.99196 14.3311 9.53157 14.4357C10.0743 14.5386 11.4525 14.1907 11.9058 13.538C12.3583 12.8878 12.542 12.2687 12.5097 12.1177C12.4774 11.9668 12.3087 11.8336 12.0665 11.5926C11.8268 11.3524 10.6377 10.1875 10.4041 10.0045C10.1721 9.82481 9.99586 9.71707 9.71302 9.96857C9.43019 10.2201 8.6726 10.7548 8.44363 10.9114C8.21466 11.068 8.04172 11.0444 7.79883 10.806C7.55906 10.5658 6.73203 9.96561 5.94871 8.58563C5.33919 7.51224 5.0628 6.32978 4.98727 5.96919C4.91098 5.61116 5.10971 5.48717 5.29994 5.37452C5.4707 5.2755 5.69551 5.09827 5.89329 4.96014C6.08872 4.82132 6.17376 4.70795 6.33185 4.53033C6.48758 4.35201 6.494 4.1571 6.46923 3.98067C6.44446 3.80423 6.3404 2.1102 6.26664 1.42306Z" fill="#D4D4D6"/>
</svg>
